<?xml version="1.0" encoding="UTF-8" standalone="no"?>
<svg
   xmlns:dc="http://purl.org/dc/elements/1.1/"
   xmlns:cc="http://creativecommons.org/ns#"
   xmlns:rdf="http://www.w3.org/1999/02/22-rdf-syntax-ns#"
   xmlns:svg="http://www.w3.org/2000/svg"
   xmlns="http://www.w3.org/2000/svg"
   xmlns:xlink="http://www.w3.org/1999/xlink"
   xmlns:sodipodi="http://sodipodi.sourceforge.net/DTD/sodipodi-0.dtd"
   xmlns:inkscape="http://www.inkscape.org/namespaces/inkscape"
   version="1.1"
   preserveAspectRatio="xMidYMid meet"
   viewBox="0 0 109.94231 150.34647"
   width="109.94231"
   height="150.34647"
   id="svg35"
   sodipodi:docname="DanHintzDesignLogo - Smile.svg"
   inkscape:version="0.92.4 (5da689c313, 2019-01-14)">
  <metadata
     id="metadata39">
    <rdf:RDF>
      <cc:Work
         rdf:about="">
        <dc:format>image/svg+xml</dc:format>
        <dc:type
           rdf:resource="http://purl.org/dc/dcmitype/StillImage" />
      </cc:Work>
    </rdf:RDF>
  </metadata>
  <sodipodi:namedview
     pagecolor="#ffffff"
     bordercolor="#666666"
     borderopacity="1"
     objecttolerance="10"
     gridtolerance="10"
     guidetolerance="10"
     inkscape:pageopacity="0"
     inkscape:pageshadow="2"
     inkscape:window-width="1920"
     inkscape:window-height="1001"
     id="namedview37"
     showgrid="false"
     inkscape:zoom="0.36875"
     inkscape:cx="54.97"
     inkscape:cy="25.17"
     inkscape:window-x="-9"
     inkscape:window-y="-9"
     inkscape:window-maximized="1"
     inkscape:current-layer="svg35" />
  <defs
     id="defs5">
    <path
       d="m 265.53,215.67 h 55.6 v 35.49 h -55.6 z"
       id="jyW68WGq8"
       inkscape:connector-curvature="0" />
    <path
       d="m 265.53,289.67 h 55.6 v 35.49 h -55.6 z"
       id="b3n6iSwvx"
       inkscape:connector-curvature="0" />
    <path
       d="m 349.39,241.13 c 3.41,18.84 3.06,38.17 -1.02,56.87 -1.06,4.86 -0.39,1.77 -2.03,9.29 -2.17,9.94 -6.12,19.4 -11.66,27.94 -0.81,1.26 -2.86,4.4 -6.12,9.44 h 22 c 3.23,-5.04 5.24,-8.19 6.05,-9.45 4.98,-7.77 8.88,-16.17 11.6,-24.98 2.47,-8 -0.7,2.27 0.15,-0.48 7.95,-25.76 8.15,-53.29 0.57,-79.16 -0.94,-3.19 1.99,6.8 -0.42,-1.42 -2.82,-9.61 -7.21,-18.68 -13,-26.86 -0.66,-0.93 -2.31,-3.26 -4.95,-6.99 l -27,0.67 c 3.51,3.45 5.71,5.61 6.59,6.48 9.69,9.51 16.19,21.78 18.6,35.14 1.16,6.41 -0.23,-1.3 0.64,3.51 z"
       id="dY72lM8JR"
       inkscape:connector-curvature="0" />
  </defs>
  <g
     id="g33"
     transform="translate(-265.03,-194.82354)">
    <g
       id="g31">
      <g
         id="g13">
        <use
           xlink:href="#jyW68WGq8"
           id="use7"
           style="opacity:1;fill:#7fff00;fill-opacity:0.98999999"
           x="0"
           y="0"
           width="100%"
           height="100%" />
        <g
           id="g11">
          <use
             xlink:href="#jyW68WGq8"
             id="use9"
             style="opacity:1;fill-opacity:0;stroke:#00004b;stroke-width:1;stroke-opacity:1"
             x="0"
             y="0"
             width="100%"
             height="100%" />
        </g>
      </g>
      <g
         id="g21">
        <use
           xlink:href="#b3n6iSwvx"
           id="use15"
           style="opacity:1;fill:#7fff00;fill-opacity:0.98999999"
           x="0"
           y="0"
           width="100%"
           height="100%" />
        <g
           id="g19">
          <use
             xlink:href="#b3n6iSwvx"
             id="use17"
             style="opacity:1;fill-opacity:0;stroke:#00004b;stroke-width:1;stroke-opacity:1"
             x="0"
             y="0"
             width="100%"
             height="100%" />
        </g>
      </g>
      <g
         id="g29">
        <use
           xlink:href="#dY72lM8JR"
           id="use23"
           style="opacity:1;fill:#7fff00;fill-opacity:0.98999999"
           x="0"
           y="0"
           width="100%"
           height="100%" />
        <g
           id="g27">
          <use
             xlink:href="#dY72lM8JR"
             id="use25"
             style="opacity:1;fill-opacity:0;stroke:#00004b;stroke-width:1;stroke-opacity:1"
             x="0"
             y="0"
             width="100%"
             height="100%" />
        </g>
      </g>
    </g>
  </g>
</svg>
