<?xml version="1.0" encoding="UTF-8" standalone="no"?>
<svg
   xmlns:dc="http://purl.org/dc/elements/1.1/"
   xmlns:cc="http://creativecommons.org/ns#"
   xmlns:rdf="http://www.w3.org/1999/02/22-rdf-syntax-ns#"
   xmlns:svg="http://www.w3.org/2000/svg"
   xmlns="http://www.w3.org/2000/svg"
   xmlns:xlink="http://www.w3.org/1999/xlink"
   xmlns:sodipodi="http://sodipodi.sourceforge.net/DTD/sodipodi-0.dtd"
   xmlns:inkscape="http://www.inkscape.org/namespaces/inkscape"
   version="1.1"
   preserveAspectRatio="xMidYMid meet"
   viewBox="0 0 220.40004 232"
   width="220.40004"
   height="232"
   id="svg17"
   sodipodi:docname="DanHintzDesignLogo - D.svg"
   inkscape:version="0.92.4 (5da689c313, 2019-01-14)">
  <metadata
     id="metadata21">
    <rdf:RDF>
      <cc:Work
         rdf:about="">
        <dc:format>image/svg+xml</dc:format>
        <dc:type
           rdf:resource="http://purl.org/dc/dcmitype/StillImage" />
      </cc:Work>
    </rdf:RDF>
  </metadata>
  <sodipodi:namedview
     pagecolor="#ffffff"
     bordercolor="#666666"
     borderopacity="1"
     objecttolerance="10"
     gridtolerance="10"
     guidetolerance="10"
     inkscape:pageopacity="0"
     inkscape:pageshadow="2"
     inkscape:window-width="1920"
     inkscape:window-height="1001"
     id="namedview19"
     showgrid="false"
     inkscape:zoom="0.36875"
     inkscape:cx="120.2"
     inkscape:cy="96"
     inkscape:window-x="-9"
     inkscape:window-y="-9"
     inkscape:window-maximized="1"
     inkscape:current-layer="svg17" />
  <defs
     id="defs3">
    <path
       d="m 335.18,185.13 2.27,0.16 2.25,0.23 2.24,0.29 2.23,0.36 2.21,0.41 2.19,0.48 2.17,0.54 2.15,0.59 2.13,0.66 2.1,0.71 2.09,0.77 2.05,0.83 2.03,0.89 2.01,0.94 1.97,0.99 1.95,1.05 1.92,1.11 1.88,1.15 1.85,1.21 1.82,1.26 1.78,1.31 1.75,1.36 1.7,1.4 1.67,1.46 1.63,1.51 1.59,1.55 1.55,1.59 1.5,1.65 1.46,1.68 1.42,1.74 1.37,1.77 1.32,1.82 1.27,1.86 1.22,1.9 1.18,1.94 1.12,1.98 1.06,2.02 1.01,2.06 2.39,5.03 1.41,3.07 1.34,3.1 1.27,3.12 1.2,3.14 1.13,3.16 1.05,3.18 0.98,3.2 0.91,3.21 0.83,3.23 0.77,3.24 0.69,3.25 0.61,3.26 0.55,3.27 0.47,3.29 0.4,3.29 0.33,3.29 0.25,3.3 0.19,3.3 0.11,3.31 0.03,3.31 -0.03,3.31 -0.11,3.3 -0.18,3.31 -0.25,3.3 -0.33,3.29 -0.4,3.29 -0.47,3.28 -0.54,3.28 -0.61,3.26 -0.69,3.25 -0.76,3.24 -0.84,3.23 -0.9,3.21 -0.98,3.2 -1.05,3.18 -1.12,3.16 -1.2,3.14 -1.27,3.12 -1.34,3.1 -1.41,3.08 -1.95,4.12 -1.04,2.11 -1.09,2.07 -1.14,2.02 -1.2,1.99 -1.25,1.95 -1.3,1.9 -1.35,1.86 -1.4,1.82 -1.45,1.77 -1.49,1.73 -1.54,1.68 -1.58,1.64 -1.63,1.58 -1.66,1.54 -1.71,1.5 -1.75,1.44 -1.79,1.39 -1.82,1.34 -1.86,1.29 -1.89,1.23 -1.93,1.19 -1.96,1.13 -1.99,1.07 -2.02,1.02 -2.05,0.96 -2.08,0.91 -2.11,0.85 -2.13,0.79 -2.15,0.73 -2.18,0.67 -2.2,0.61 -2.22,0.55 -2.24,0.49 -2.26,0.43 -2.28,0.36 -2.29,0.3 -2.31,0.23 -2.33,0.17 -2.33,0.1 -2.35,0.03 H 200.8 v -20 h 7.4 l 0.93,-0.02 0.92,-0.05 0.91,-0.1 0.9,-0.13 0.89,-0.16 0.88,-0.2 0.86,-0.23 0.85,-0.26 0.83,-0.3 0.82,-0.33 0.81,-0.35 0.78,-0.39 0.77,-0.42 0.75,-0.45 0.73,-0.47 0.71,-0.5 0.69,-0.53 0.67,-0.55 0.65,-0.58 0.63,-0.6 0.6,-0.63 0.58,-0.64 0.55,-0.67 0.53,-0.69 0.5,-0.71 0.47,-0.74 0.45,-0.75 0.41,-0.77 0.39,-0.78 0.36,-0.8 0.33,-0.82 0.29,-0.84 0.27,-0.85 0.23,-0.86 0.2,-0.88 0.16,-0.89 0.13,-0.9 0.09,-0.91 0.06,-0.92 0.02,-0.93 V 228.3 l -0.02,-0.96 -0.06,-0.95 -0.1,-0.94 -0.13,-0.93 -0.17,-0.91 -0.2,-0.91 -0.24,-0.89 -0.27,-0.87 -0.31,-0.86 -0.33,-0.85 -0.37,-0.83 -0.4,-0.81 -0.43,-0.79 -0.46,-0.77 -0.49,-0.76 -0.52,-0.73 -0.54,-0.71 -0.57,-0.69 -0.6,-0.67 -0.62,-0.64 -0.64,-0.63 -0.67,-0.59 -0.69,-0.57 -0.71,-0.54 -0.74,-0.52 -0.75,-0.49 -0.77,-0.46 -0.8,-0.43 -0.81,-0.4 -0.82,-0.37 -0.85,-0.34 -0.86,-0.3 -0.88,-0.27 -0.89,-0.24 -0.9,-0.21 -0.92,-0.17 -0.92,-0.13 -0.94,-0.09 -0.95,-0.06 -0.97,-0.02 h -6.69 v -20 h 129.8 l 2.29,0.03 z M 260.8,385 h 65.5 l 1.14,-0.01 1.13,-0.05 1.13,-0.07 1.12,-0.11 1.12,-0.13 1.11,-0.16 1.1,-0.19 1.09,-0.21 1.09,-0.25 1.08,-0.27 1.07,-0.3 1.06,-0.32 1.05,-0.36 1.04,-0.38 1.03,-0.4 1.01,-0.43 1.01,-0.46 0.99,-0.48 0.98,-0.5 0.97,-0.54 0.95,-0.55 0.94,-0.58 0.92,-0.6 0.91,-0.63 0.89,-0.65 0.88,-0.68 0.86,-0.69 0.84,-0.72 0.82,-0.74 0.81,-0.77 0.79,-0.78 0.77,-0.81 0.75,-0.82 0.73,-0.85 0.7,-0.87 0.69,-0.89 0.67,-0.91 0.64,-0.93 0.62,-0.95 0.6,-0.97 1.48,-2.47 0.45,-0.74 0.44,-0.76 0.44,-0.75 0.44,-0.75 0.43,-0.76 0.43,-0.76 0.42,-0.76 0.42,-0.76 0.42,-0.76 0.42,-0.77 0.41,-0.76 0.41,-0.77 0.4,-0.78 0.4,-0.77 0.4,-0.77 0.39,-0.78 0.39,-0.78 0.38,-0.78 0.39,-0.78 0.37,-0.79 0.38,-0.78 0.37,-0.79 0.37,-0.79 0.36,-0.79 0.36,-0.79 0.36,-0.8 0.35,-0.79 0.35,-0.8 0.35,-0.8 0.34,-0.8 0.34,-0.8 0.33,-0.81 0.33,-0.8 0.27,-0.66 0.54,-1.69 0.57,-1.89 0.53,-1.89 0.51,-1.9 0.46,-1.91 0.44,-1.91 0.4,-1.92 0.37,-1.92 0.33,-1.93 0.3,-1.93 0.26,-1.93 0.24,-1.94 0.19,-1.94 0.17,-1.95 0.13,-1.94 0.1,-1.95 0.06,-1.95 0.03,-1.95 -0.01,-1.95 -0.03,-1.95 -0.07,-1.94 -0.11,-1.95 -0.14,-1.95 -0.17,-1.94 -0.21,-1.94 -0.24,-1.94 -0.27,-1.94 -0.31,-1.93 -0.34,-1.93 -0.38,-1.92 -0.41,-1.92 -0.44,-1.91 -0.48,-1.9 -0.51,-1.9 -0.54,-1.9 -0.22,-0.7 v -0.01 l -0.31,-0.78 -0.32,-0.78 -0.32,-0.78 -0.32,-0.78 -0.33,-0.77 -0.33,-0.78 -0.33,-0.77 -0.34,-0.77 -0.34,-0.77 -0.35,-0.77 -0.34,-0.76 -0.36,-0.77 -0.35,-0.76 -0.36,-0.76 -0.36,-0.76 -0.37,-0.76 -0.36,-0.76 -0.38,-0.75 -0.37,-0.75 -0.38,-0.76 -0.38,-0.75 -0.39,-0.74 -0.39,-0.75 -0.39,-0.74 -0.4,-0.75 -0.4,-0.74 -0.4,-0.74 -0.41,-0.73 -0.41,-0.74 -0.18,-0.33 -0.35,-0.58 -0.87,-1.38 -0.91,-1.36 -0.95,-1.33 -0.97,-1.29 -1.01,-1.27 -1.03,-1.24 -1.07,-1.21 -1.09,-1.18 -1.13,-1.15 -1.15,-1.11 -1.18,-1.08 -1.2,-1.05 -1.23,-1.02 -1.26,-0.99 -1.28,-0.95 -1.3,-0.92 -1.32,-0.88 -1.35,-0.85 -1.37,-0.81 -1.39,-0.78 -1.41,-0.74 -1.42,-0.71 -1.45,-0.66 -1.47,-0.63 -1.48,-0.6 -1.49,-0.55 -1.52,-0.52 -1.52,-0.48 -1.55,-0.43 -1.55,-0.4 -1.57,-0.36 -1.58,-0.32 -1.59,-0.27 -1.6,-0.24 -1.61,-0.19 -1.62,-0.15 -1.63,-0.11 -1.64,-0.07 -1.64,-0.02 h -52.5 z m 118.52,-53.2 -0.32,0.81 -0.31,0.81 -0.32,0.81 -0.32,0.81 -0.06,0.15 -0.06,0.19 -0.64,1.86 -0.67,1.87 3.31,-8.94 -0.31,0.81 z m -0.94,-65.74 0.36,1.18 0.31,0.77 0.3,0.79 0.3,0.78 0.3,0.79 0.3,0.79 0.29,0.79 0.29,0.79 0.28,0.8 -3.99,-11.23 0.65,1.87 z m -10.54,-21.58 0.23,0.4 0.49,0.83 -1.56,-2.7 0.42,0.73 z"
       id="h24K4xdfPb"
       inkscape:connector-curvature="0" />
  </defs>
  <g
     id="g15"
     transform="translate(-199.8,-184)">
    <g
       id="g13">
      <g
         id="g11">
        <use
           xlink:href="#h24K4xdfPb"
           id="use5"
           style="opacity:1;fill:#00004b;fill-opacity:0.97000002"
           x="0"
           y="0"
           width="100%"
           height="100%" />
        <g
           id="g9">
          <use
             xlink:href="#h24K4xdfPb"
             id="use7"
             style="opacity:1;fill-opacity:0;stroke:#00004b;stroke-width:2;stroke-opacity:1"
             x="0"
             y="0"
             width="100%"
             height="100%" />
        </g>
      </g>
    </g>
  </g>
</svg>
